%TF.GenerationSoftware,KiCad,Pcbnew,(6.0.5)*%
%TF.CreationDate,2022-06-01T11:59:12+02:00*%
%TF.ProjectId,ega_composite_output_feature_adapter,6567615f-6665-4617-9475-72655f616461,rev?*%
%TF.SameCoordinates,Original*%
%TF.FileFunction,Copper,L1,Top*%
%TF.FilePolarity,Positive*%
%FSLAX46Y46*%
G04 Gerber Fmt 4.6, Leading zero omitted, Abs format (unit mm)*
G04 Created by KiCad (PCBNEW (6.0.5)) date 2022-06-01 11:59:12*
%MOMM*%
%LPD*%
G01*
G04 APERTURE LIST*
%TA.AperFunction,ComponentPad*%
%ADD10C,1.600000*%
%TD*%
%TA.AperFunction,ComponentPad*%
%ADD11R,1.700000X1.700000*%
%TD*%
%TA.AperFunction,ComponentPad*%
%ADD12O,1.700000X1.700000*%
%TD*%
%TA.AperFunction,ComponentPad*%
%ADD13R,1.600000X1.600000*%
%TD*%
%TA.AperFunction,ComponentPad*%
%ADD14R,1.500000X1.500000*%
%TD*%
%TA.AperFunction,ComponentPad*%
%ADD15C,1.500000*%
%TD*%
%TA.AperFunction,ComponentPad*%
%ADD16O,1.600000X1.600000*%
%TD*%
%TA.AperFunction,ViaPad*%
%ADD17C,0.800000*%
%TD*%
%TA.AperFunction,Conductor*%
%ADD18C,0.250000*%
%TD*%
G04 APERTURE END LIST*
D10*
%TO.P,REF\u002A\u002A,1*%
%TO.N,N/C*%
X142240000Y-93980000D03*
%TO.P,REF\u002A\u002A,2*%
X142240000Y-86360000D03*
%TD*%
D11*
%TO.P,REF\u002A\u002A,1*%
%TO.N,N/C*%
X167650000Y-99695000D03*
D12*
%TO.P,REF\u002A\u002A,2*%
X170190000Y-99695000D03*
%TO.P,REF\u002A\u002A,3*%
X172730000Y-99695000D03*
%TO.P,REF\u002A\u002A,4*%
X175270000Y-99695000D03*
%TD*%
D13*
%TO.P,REF\u002A\u002A,1*%
%TO.N,N/C*%
X144780000Y-63540000D03*
D10*
%TO.P,REF\u002A\u002A,2*%
X144780000Y-68540000D03*
%TD*%
%TO.P,REF\u002A\u002A,1*%
%TO.N,N/C*%
X147320000Y-93980000D03*
%TO.P,REF\u002A\u002A,2*%
X147320000Y-86360000D03*
%TD*%
%TO.P,REF\u002A\u002A,1*%
%TO.N,N/C*%
X137160000Y-93980000D03*
%TO.P,REF\u002A\u002A,2*%
X137160000Y-86360000D03*
%TD*%
%TO.P,REF\u002A\u002A,1*%
%TO.N,N/C*%
X149860000Y-93980000D03*
%TO.P,REF\u002A\u002A,2*%
X149860000Y-86360000D03*
%TD*%
%TO.P,REF\u002A\u002A,1*%
%TO.N,N/C*%
X134620000Y-68540000D03*
%TO.P,REF\u002A\u002A,2*%
X134620000Y-63540000D03*
%TD*%
%TO.P,REF\u002A\u002A,1*%
%TO.N,N/C*%
X172720000Y-93980000D03*
%TO.P,REF\u002A\u002A,2*%
X172720000Y-86360000D03*
%TD*%
D14*
%TO.P,REF\u002A\u002A,1*%
%TO.N,N/C*%
X167640000Y-88900000D03*
D15*
%TO.P,REF\u002A\u002A,2*%
X167640000Y-91440000D03*
%TO.P,REF\u002A\u002A,3*%
X167640000Y-93980000D03*
%TD*%
D10*
%TO.P,REF\u002A\u002A,1*%
%TO.N,N/C*%
X139700000Y-93980000D03*
%TO.P,REF\u002A\u002A,2*%
X139700000Y-86360000D03*
%TD*%
%TO.P,REF\u002A\u002A,1*%
%TO.N,N/C*%
X172720000Y-68580000D03*
%TO.P,REF\u002A\u002A,2*%
X165100000Y-68580000D03*
%TD*%
D13*
%TO.P,REF\u002A\u002A,1*%
%TO.N,N/C*%
X160020000Y-78740000D03*
D16*
%TO.P,REF\u002A\u002A,2*%
X162560000Y-78740000D03*
%TO.P,REF\u002A\u002A,3*%
X165100000Y-78740000D03*
%TO.P,REF\u002A\u002A,4*%
X167640000Y-78740000D03*
%TO.P,REF\u002A\u002A,5*%
X170180000Y-78740000D03*
%TO.P,REF\u002A\u002A,6*%
X172720000Y-78740000D03*
%TO.P,REF\u002A\u002A,7*%
X175260000Y-78740000D03*
%TO.P,REF\u002A\u002A,8*%
X175260000Y-71120000D03*
%TO.P,REF\u002A\u002A,9*%
X172720000Y-71120000D03*
%TO.P,REF\u002A\u002A,10*%
X170180000Y-71120000D03*
%TO.P,REF\u002A\u002A,11*%
X167640000Y-71120000D03*
%TO.P,REF\u002A\u002A,12*%
X165100000Y-71120000D03*
%TO.P,REF\u002A\u002A,13*%
X162560000Y-71120000D03*
%TO.P,REF\u002A\u002A,14*%
X160020000Y-71120000D03*
%TD*%
D10*
%TO.P,REF\u002A\u002A,1*%
%TO.N,N/C*%
X160020000Y-81915000D03*
%TO.P,REF\u002A\u002A,2*%
X165020000Y-81915000D03*
%TD*%
%TO.P,REF\u002A\u002A,1*%
%TO.N,N/C*%
X167640000Y-96520000D03*
%TO.P,REF\u002A\u002A,2*%
X175260000Y-96520000D03*
%TD*%
%TO.P,REF\u002A\u002A,1*%
%TO.N,N/C*%
X175260000Y-93980000D03*
%TO.P,REF\u002A\u002A,2*%
X175260000Y-86360000D03*
%TD*%
%TO.P,REF\u002A\u002A,1*%
%TO.N,N/C*%
X157480000Y-93980000D03*
%TO.P,REF\u002A\u002A,2*%
X157480000Y-86360000D03*
%TD*%
D13*
%TO.P,REF\u002A\u002A,1*%
%TO.N,N/C*%
X132080000Y-78740000D03*
D16*
%TO.P,REF\u002A\u002A,2*%
X134620000Y-78740000D03*
%TO.P,REF\u002A\u002A,3*%
X137160000Y-78740000D03*
%TO.P,REF\u002A\u002A,4*%
X139700000Y-78740000D03*
%TO.P,REF\u002A\u002A,5*%
X142240000Y-78740000D03*
%TO.P,REF\u002A\u002A,6*%
X144780000Y-78740000D03*
%TO.P,REF\u002A\u002A,7*%
X147320000Y-78740000D03*
%TO.P,REF\u002A\u002A,8*%
X149860000Y-78740000D03*
%TO.P,REF\u002A\u002A,9*%
X152400000Y-78740000D03*
%TO.P,REF\u002A\u002A,10*%
X154940000Y-78740000D03*
%TO.P,REF\u002A\u002A,11*%
X154940000Y-71120000D03*
%TO.P,REF\u002A\u002A,12*%
X152400000Y-71120000D03*
%TO.P,REF\u002A\u002A,13*%
X149860000Y-71120000D03*
%TO.P,REF\u002A\u002A,14*%
X147320000Y-71120000D03*
%TO.P,REF\u002A\u002A,15*%
X144780000Y-71120000D03*
%TO.P,REF\u002A\u002A,16*%
X142240000Y-71120000D03*
%TO.P,REF\u002A\u002A,17*%
X139700000Y-71120000D03*
%TO.P,REF\u002A\u002A,18*%
X137160000Y-71120000D03*
%TO.P,REF\u002A\u002A,19*%
X134620000Y-71120000D03*
%TO.P,REF\u002A\u002A,20*%
X132080000Y-71120000D03*
%TD*%
D10*
%TO.P,REF\u002A\u002A,1*%
%TO.N,N/C*%
X152400000Y-93980000D03*
%TO.P,REF\u002A\u002A,2*%
X152400000Y-86360000D03*
%TD*%
%TO.P,REF\u002A\u002A,1*%
%TO.N,N/C*%
X167640000Y-83820000D03*
%TO.P,REF\u002A\u002A,2*%
X175260000Y-83820000D03*
%TD*%
D11*
%TO.P,REF\u002A\u002A,1*%
%TO.N,N/C*%
X172720000Y-58415000D03*
D12*
%TO.P,REF\u002A\u002A,2*%
X172720000Y-60955000D03*
%TO.P,REF\u002A\u002A,3*%
X170180000Y-58415000D03*
%TO.P,REF\u002A\u002A,4*%
X170180000Y-60955000D03*
%TO.P,REF\u002A\u002A,5*%
X167640000Y-58415000D03*
%TO.P,REF\u002A\u002A,6*%
X167640000Y-60955000D03*
%TO.P,REF\u002A\u002A,7*%
X165100000Y-58415000D03*
%TO.P,REF\u002A\u002A,8*%
X165100000Y-60955000D03*
%TO.P,REF\u002A\u002A,9*%
X162560000Y-58415000D03*
%TO.P,REF\u002A\u002A,10*%
X162560000Y-60955000D03*
%TO.P,REF\u002A\u002A,11*%
X160020000Y-58415000D03*
%TO.P,REF\u002A\u002A,12*%
X160020000Y-60955000D03*
%TO.P,REF\u002A\u002A,13*%
X157480000Y-58415000D03*
%TO.P,REF\u002A\u002A,14*%
X157480000Y-60955000D03*
%TO.P,REF\u002A\u002A,15*%
X154940000Y-58415000D03*
%TO.P,REF\u002A\u002A,16*%
X154940000Y-60955000D03*
%TO.P,REF\u002A\u002A,17*%
X152400000Y-58415000D03*
%TO.P,REF\u002A\u002A,18*%
X152400000Y-60955000D03*
%TO.P,REF\u002A\u002A,19*%
X149860000Y-58415000D03*
%TO.P,REF\u002A\u002A,20*%
X149860000Y-60955000D03*
%TO.P,REF\u002A\u002A,21*%
X147320000Y-58415000D03*
%TO.P,REF\u002A\u002A,22*%
X147320000Y-60955000D03*
%TO.P,REF\u002A\u002A,23*%
X144780000Y-58415000D03*
%TO.P,REF\u002A\u002A,24*%
X144780000Y-60955000D03*
%TO.P,REF\u002A\u002A,25*%
X142240000Y-58415000D03*
%TO.P,REF\u002A\u002A,26*%
X142240000Y-60955000D03*
%TO.P,REF\u002A\u002A,27*%
X139700000Y-58415000D03*
%TO.P,REF\u002A\u002A,28*%
X139700000Y-60955000D03*
%TO.P,REF\u002A\u002A,29*%
X137160000Y-58415000D03*
%TO.P,REF\u002A\u002A,30*%
X137160000Y-60955000D03*
%TO.P,REF\u002A\u002A,31*%
X134620000Y-58415000D03*
%TO.P,REF\u002A\u002A,32*%
X134620000Y-60955000D03*
%TD*%
D17*
%TO.N,*%
X157480000Y-68580000D03*
X138430000Y-63500000D03*
X157480000Y-66040000D03*
X139700000Y-63500000D03*
X156210000Y-66040000D03*
X149860000Y-68580000D03*
%TD*%
D18*
%TO.N,*%
X140970000Y-62230000D02*
X153035000Y-62230000D01*
X139700000Y-63500000D02*
X140970000Y-62230000D01*
X153035000Y-62230000D02*
X153670000Y-61595000D01*
X153670000Y-61595000D02*
X153670000Y-59685000D01*
X153670000Y-59685000D02*
X154940000Y-58415000D01*
X173990000Y-98435000D02*
X172730000Y-99695000D01*
X173990000Y-95250000D02*
X173990000Y-98435000D01*
X176530000Y-98435000D02*
X175270000Y-99695000D01*
X176530000Y-80010000D02*
X176530000Y-98435000D01*
X173990000Y-95250000D02*
X172720000Y-93980000D01*
X172085000Y-81915000D02*
X165020000Y-81915000D01*
X175260000Y-78740000D02*
X172085000Y-81915000D01*
X146055000Y-59690000D02*
X147320000Y-60955000D01*
X138430000Y-63500000D02*
X138430000Y-60325000D01*
X138430000Y-60325000D02*
X139065000Y-59690000D01*
X139065000Y-59690000D02*
X146055000Y-59690000D01*
X142240000Y-63500000D02*
X144780000Y-63500000D01*
X140970000Y-64770000D02*
X142240000Y-63500000D01*
X176530000Y-71755000D02*
X175260000Y-73025000D01*
X176530000Y-62230000D02*
X176530000Y-71755000D01*
X175260000Y-73025000D02*
X175260000Y-76200000D01*
X172720000Y-58420000D02*
X176530000Y-62230000D01*
X172720000Y-58415000D02*
X172720000Y-58420000D01*
X175260000Y-76200000D02*
X154940000Y-76200000D01*
X176530000Y-80010000D02*
X175260000Y-78740000D01*
X175260000Y-96520000D02*
X176520000Y-96520000D01*
X176530000Y-83820000D02*
X175260000Y-83820000D01*
X130810000Y-71755000D02*
X130810000Y-62225000D01*
X130810000Y-62225000D02*
X134620000Y-58415000D01*
X132080000Y-73025000D02*
X130810000Y-71755000D01*
X132080000Y-76200000D02*
X132080000Y-73025000D01*
X132080000Y-63495000D02*
X134620000Y-60955000D01*
X132080000Y-63500000D02*
X132080000Y-63495000D01*
X153670000Y-68580000D02*
X156210000Y-66040000D01*
X149860000Y-68580000D02*
X153670000Y-68580000D01*
X137160000Y-64770000D02*
X135930000Y-63540000D01*
X140970000Y-64770000D02*
X137160000Y-64770000D01*
X135930000Y-63540000D02*
X134620000Y-63540000D01*
X146050000Y-69850000D02*
X144780000Y-71120000D01*
X153670000Y-69850000D02*
X146050000Y-69850000D01*
X157480000Y-66040000D02*
X153670000Y-69850000D01*
X144780000Y-63500000D02*
X144780000Y-63540000D01*
X160020000Y-63500000D02*
X144780000Y-63500000D01*
X160020000Y-68580000D02*
X160020000Y-63500000D01*
X132080000Y-63500000D02*
X132120000Y-63540000D01*
X132120000Y-63540000D02*
X134620000Y-63540000D01*
X132080000Y-63500000D02*
X132080000Y-71120000D01*
X134620000Y-68540000D02*
X144780000Y-68540000D01*
X134620000Y-71120000D02*
X134620000Y-68540000D01*
X160020000Y-68580000D02*
X165100000Y-68580000D01*
X139700000Y-76200000D02*
X134620000Y-76200000D01*
X167640000Y-83820000D02*
X167640000Y-86360000D01*
X134620000Y-76200000D02*
X134620000Y-78740000D01*
X172720000Y-71120000D02*
X172720000Y-68580000D01*
X154940000Y-76200000D02*
X154940000Y-78740000D01*
X173990000Y-92710000D02*
X173990000Y-87630000D01*
X157480000Y-68580000D02*
X160020000Y-68580000D01*
X175260000Y-93980000D02*
X173990000Y-92710000D01*
X175260000Y-78740000D02*
X175260000Y-76200000D01*
X147320000Y-93980000D02*
X142240000Y-93980000D01*
X134620000Y-71120000D02*
X134620000Y-76200000D01*
X162560000Y-86360000D02*
X167640000Y-91440000D01*
X152400000Y-86360000D02*
X152400000Y-78740000D01*
X134620000Y-76200000D02*
X132080000Y-76200000D01*
X152400000Y-93980000D02*
X149860000Y-93980000D01*
X149860000Y-93980000D02*
X147320000Y-93980000D01*
X147320000Y-86360000D02*
X147320000Y-78740000D01*
X157480000Y-93980000D02*
X152400000Y-93980000D01*
X149860000Y-76200000D02*
X139700000Y-76200000D01*
X160020000Y-68580000D02*
X160020000Y-71120000D01*
X167640000Y-86360000D02*
X172720000Y-86360000D01*
X154940000Y-76200000D02*
X149860000Y-76200000D01*
X173990000Y-87630000D02*
X172720000Y-86360000D01*
X160020000Y-78740000D02*
X162560000Y-78740000D01*
X157480000Y-73660000D02*
X154940000Y-71120000D01*
X137160000Y-86360000D02*
X137160000Y-78740000D01*
X167640000Y-78740000D02*
X170180000Y-78740000D01*
X170180000Y-71120000D02*
X167640000Y-71120000D01*
X167640000Y-93980000D02*
X157480000Y-93980000D01*
X167640000Y-96520000D02*
X167640000Y-93980000D01*
X139700000Y-76200000D02*
X139700000Y-78740000D01*
X149860000Y-76200000D02*
X149860000Y-78740000D01*
X142240000Y-93980000D02*
X139700000Y-93980000D01*
X142240000Y-86360000D02*
X142240000Y-78740000D01*
X139700000Y-93980000D02*
X137160000Y-93980000D01*
X172720000Y-73660000D02*
X157480000Y-73660000D01*
X167640000Y-86360000D02*
X167640000Y-88900000D01*
X157480000Y-86360000D02*
X162560000Y-86360000D01*
X132080000Y-76200000D02*
X132080000Y-78740000D01*
X175260000Y-71120000D02*
X172720000Y-73660000D01*
%TD*%
M02*
