%TF.GenerationSoftware,KiCad,Pcbnew,(6.0.5)*%
%TF.CreationDate,2022-06-01T11:59:12+02:00*%
%TF.ProjectId,ega_composite_output_feature_adapter,6567615f-6665-4617-9475-72655f616461,rev?*%
%TF.SameCoordinates,Original*%
%TF.FileFunction,Soldermask,Top*%
%TF.FilePolarity,Negative*%
%FSLAX46Y46*%
G04 Gerber Fmt 4.6, Leading zero omitted, Abs format (unit mm)*
G04 Created by KiCad (PCBNEW (6.0.5)) date 2022-06-01 11:59:12*
%MOMM*%
%LPD*%
G01*
G04 APERTURE LIST*
%ADD10C,1.600000*%
%ADD11R,1.700000X1.700000*%
%ADD12O,1.700000X1.700000*%
%ADD13R,1.600000X1.600000*%
%ADD14R,1.500000X1.500000*%
%ADD15C,1.500000*%
%ADD16O,1.600000X1.600000*%
G04 APERTURE END LIST*
D10*
%TO.C,REF\u002A\u002A*%
X142240000Y-93980000D03*
X142240000Y-86360000D03*
%TD*%
D11*
%TO.C,REF\u002A\u002A*%
X167650000Y-99695000D03*
D12*
X170190000Y-99695000D03*
X172730000Y-99695000D03*
X175270000Y-99695000D03*
%TD*%
D13*
%TO.C,REF\u002A\u002A*%
X144780000Y-63540000D03*
D10*
X144780000Y-68540000D03*
%TD*%
%TO.C,REF\u002A\u002A*%
X147320000Y-93980000D03*
X147320000Y-86360000D03*
%TD*%
%TO.C,REF\u002A\u002A*%
X137160000Y-93980000D03*
X137160000Y-86360000D03*
%TD*%
%TO.C,REF\u002A\u002A*%
X149860000Y-93980000D03*
X149860000Y-86360000D03*
%TD*%
%TO.C,REF\u002A\u002A*%
X134620000Y-68540000D03*
X134620000Y-63540000D03*
%TD*%
%TO.C,REF\u002A\u002A*%
X172720000Y-93980000D03*
X172720000Y-86360000D03*
%TD*%
D14*
%TO.C,REF\u002A\u002A*%
X167640000Y-88900000D03*
D15*
X167640000Y-91440000D03*
X167640000Y-93980000D03*
%TD*%
D10*
%TO.C,REF\u002A\u002A*%
X139700000Y-93980000D03*
X139700000Y-86360000D03*
%TD*%
%TO.C,REF\u002A\u002A*%
X172720000Y-68580000D03*
X165100000Y-68580000D03*
%TD*%
D13*
%TO.C,REF\u002A\u002A*%
X160020000Y-78740000D03*
D16*
X162560000Y-78740000D03*
X165100000Y-78740000D03*
X167640000Y-78740000D03*
X170180000Y-78740000D03*
X172720000Y-78740000D03*
X175260000Y-78740000D03*
X175260000Y-71120000D03*
X172720000Y-71120000D03*
X170180000Y-71120000D03*
X167640000Y-71120000D03*
X165100000Y-71120000D03*
X162560000Y-71120000D03*
X160020000Y-71120000D03*
%TD*%
D10*
%TO.C,REF\u002A\u002A*%
X160020000Y-81915000D03*
X165020000Y-81915000D03*
%TD*%
%TO.C,REF\u002A\u002A*%
X167640000Y-96520000D03*
X175260000Y-96520000D03*
%TD*%
%TO.C,REF\u002A\u002A*%
X175260000Y-93980000D03*
X175260000Y-86360000D03*
%TD*%
%TO.C,REF\u002A\u002A*%
X157480000Y-93980000D03*
X157480000Y-86360000D03*
%TD*%
D13*
%TO.C,REF\u002A\u002A*%
X132080000Y-78740000D03*
D16*
X134620000Y-78740000D03*
X137160000Y-78740000D03*
X139700000Y-78740000D03*
X142240000Y-78740000D03*
X144780000Y-78740000D03*
X147320000Y-78740000D03*
X149860000Y-78740000D03*
X152400000Y-78740000D03*
X154940000Y-78740000D03*
X154940000Y-71120000D03*
X152400000Y-71120000D03*
X149860000Y-71120000D03*
X147320000Y-71120000D03*
X144780000Y-71120000D03*
X142240000Y-71120000D03*
X139700000Y-71120000D03*
X137160000Y-71120000D03*
X134620000Y-71120000D03*
X132080000Y-71120000D03*
%TD*%
D10*
%TO.C,REF\u002A\u002A*%
X152400000Y-93980000D03*
X152400000Y-86360000D03*
%TD*%
%TO.C,REF\u002A\u002A*%
X167640000Y-83820000D03*
X175260000Y-83820000D03*
%TD*%
D11*
%TO.C,REF\u002A\u002A*%
X172720000Y-58415000D03*
D12*
X172720000Y-60955000D03*
X170180000Y-58415000D03*
X170180000Y-60955000D03*
X167640000Y-58415000D03*
X167640000Y-60955000D03*
X165100000Y-58415000D03*
X165100000Y-60955000D03*
X162560000Y-58415000D03*
X162560000Y-60955000D03*
X160020000Y-58415000D03*
X160020000Y-60955000D03*
X157480000Y-58415000D03*
X157480000Y-60955000D03*
X154940000Y-58415000D03*
X154940000Y-60955000D03*
X152400000Y-58415000D03*
X152400000Y-60955000D03*
X149860000Y-58415000D03*
X149860000Y-60955000D03*
X147320000Y-58415000D03*
X147320000Y-60955000D03*
X144780000Y-58415000D03*
X144780000Y-60955000D03*
X142240000Y-58415000D03*
X142240000Y-60955000D03*
X139700000Y-58415000D03*
X139700000Y-60955000D03*
X137160000Y-58415000D03*
X137160000Y-60955000D03*
X134620000Y-58415000D03*
X134620000Y-60955000D03*
%TD*%
M02*
