M48
; DRILL file {KiCad (6.0.5)} date Wed Jun  1 11:59:19 2022
; FORMAT={-:-/ absolute / metric / decimal}
; #@! TF.CreationDate,2022-06-01T11:59:19+02:00
; #@! TF.GenerationSoftware,Kicad,Pcbnew,(6.0.5)
; #@! TF.FileFunction,Plated,1,2,PTH
FMAT,2
METRIC
; #@! TA.AperFunction,Plated,PTH,ViaDrill
T1C0.400
; #@! TA.AperFunction,Plated,PTH,ComponentDrill
T2C0.800
; #@! TA.AperFunction,Plated,PTH,ComponentDrill
T3C1.000
%
G90
G05
T1
X138.43Y-63.5
X139.7Y-63.5
X149.86Y-68.58
X156.21Y-66.04
X157.48Y-66.04
X157.48Y-68.58
T2
X132.08Y-71.12
X132.08Y-78.74
X134.62Y-63.54
X134.62Y-68.54
X134.62Y-71.12
X134.62Y-78.74
X137.16Y-71.12
X137.16Y-78.74
X137.16Y-86.36
X137.16Y-93.98
X139.7Y-71.12
X139.7Y-78.74
X139.7Y-86.36
X139.7Y-93.98
X142.24Y-71.12
X142.24Y-78.74
X142.24Y-86.36
X142.24Y-93.98
X144.78Y-63.54
X144.78Y-68.54
X144.78Y-71.12
X144.78Y-78.74
X147.32Y-71.12
X147.32Y-78.74
X147.32Y-86.36
X147.32Y-93.98
X149.86Y-71.12
X149.86Y-78.74
X149.86Y-86.36
X149.86Y-93.98
X152.4Y-71.12
X152.4Y-78.74
X152.4Y-86.36
X152.4Y-93.98
X154.94Y-71.12
X154.94Y-78.74
X157.48Y-86.36
X157.48Y-93.98
X160.02Y-71.12
X160.02Y-78.74
X160.02Y-81.915
X162.56Y-71.12
X162.56Y-78.74
X165.02Y-81.915
X165.1Y-68.58
X165.1Y-71.12
X165.1Y-78.74
X167.64Y-71.12
X167.64Y-78.74
X167.64Y-83.82
X167.64Y-88.9
X167.64Y-91.44
X167.64Y-93.98
X167.64Y-96.52
X170.18Y-71.12
X170.18Y-78.74
X172.72Y-68.58
X172.72Y-71.12
X172.72Y-78.74
X172.72Y-86.36
X172.72Y-93.98
X175.26Y-71.12
X175.26Y-78.74
X175.26Y-83.82
X175.26Y-86.36
X175.26Y-93.98
X175.26Y-96.52
T3
X134.62Y-58.415
X134.62Y-60.955
X137.16Y-58.415
X137.16Y-60.955
X139.7Y-58.415
X139.7Y-60.955
X142.24Y-58.415
X142.24Y-60.955
X144.78Y-58.415
X144.78Y-60.955
X147.32Y-58.415
X147.32Y-60.955
X149.86Y-58.415
X149.86Y-60.955
X152.4Y-58.415
X152.4Y-60.955
X154.94Y-58.415
X154.94Y-60.955
X157.48Y-58.415
X157.48Y-60.955
X160.02Y-58.415
X160.02Y-60.955
X162.56Y-58.415
X162.56Y-60.955
X165.1Y-58.415
X165.1Y-60.955
X167.64Y-58.415
X167.64Y-60.955
X167.65Y-99.695
X170.18Y-58.415
X170.18Y-60.955
X170.19Y-99.695
X172.72Y-58.415
X172.72Y-60.955
X172.73Y-99.695
X175.27Y-99.695
T0
M30
